[Header]
FileType HTR
DataType HTRS
FileVersion 1
NumSegments 64
NumFrames 3
DataFrameRate 24
EulerRotationOrder ZYX
CalibrationUnits mm
RotationUnits Degrees
GlobalAxisofGravity Y
BoneLengthAxis Y
ScaleFactor 1.0
[SegmentNames&Hierarchy]
Hips	GLOBAL
Spine	Hips
Spine1	Spine
Spine2	Spine1
Neck	Spine2
Head	Neck
LeftEye	Head
RightEye	Head
LeftShoulder	Spine2
LeftArm	LeftShoulder
LeftForeArm	LeftArm
LeftHand	LeftForeArm
LeftHandThumb1	LeftHand
LeftHandThumb2	LeftHandThumb1
LeftHandThumb3	LeftHandThumb2
LeftHandThumb4	LeftHandThumb3
LeftHandIndex1	LeftHand
LeftHandIndex2	LeftHandIndex1
LeftHandIndex3	LeftHandIndex2
LeftHandIndex4	LeftHandIndex3
LeftHandMiddle1	LeftHand
LeftHandMiddle2	LeftHandMiddle1
LeftHandMiddle3	LeftHandMiddle2
LeftHandMiddle4	LeftHandMiddle3
LeftHandRing1	LeftHand
LeftHandRing2	LeftHandRing1
LeftHandRing3	LeftHandRing2
LeftHandRing4	LeftHandRing3
LeftHandPinky1	LeftHand
LeftHandPinky2	LeftHandPinky1
LeftHandPinky3	LeftHandPinky2
LeftHandPinky4	LeftHandPinky3
RightShoulder	Spine2
RightArm	RightShoulder
RightForeArm	RightArm
RightHand	RightForeArm
RightHandPinky1	RightHand
RightHandPinky2	RightHandPinky1
RightHandPinky3	RightHandPinky2
RightHandPinky4	RightHandPinky3
RightHandRing1	RightHand
RightHandRing2	RightHandRing1
RightHandRing3	RightHandRing2
RightHandRing4	RightHandRing3
RightHandMiddle1	RightHand
RightHandMiddle2	RightHandMiddle1
RightHandMiddle3	RightHandMiddle2
RightHandMiddle4	RightHandMiddle3
RightHandIndex1	RightHand
RightHandIndex2	RightHandIndex1
RightHandIndex3	RightHandIndex2
RightHandIndex4	RightHandIndex3
RightHandThumb1	RightHand
RightHandThumb2	RightHandThumb1
RightHandThumb3	RightHandThumb2
RightHandThumb4	RightHandThumb3
LeftUpLeg	Hips
LeftLeg	LeftUpLeg
LeftFoot	LeftLeg
LeftToeBase	LeftFoot
RightUpLeg	Hips
RightLeg	RightUpLeg
RightFoot	RightLeg
RightToeBase	RightFoot
[BasePosition]
Hips	0	0	0	0	0	0	1
Spine	0	0	0	0	0	0	1
Spine1	0	0	0	0	0	0	1
Spine2	0	0	0	0	0	0	1
Neck	0	0	0	0	0	0	1
Head	0	0	0	0	0	0	1
LeftEye	0	0	0	0	0	0	1
RightEye	0	0	0	0	0	0	1
LeftShoulder	0	0	0	0	0	0	1
LeftArm	0	0	0	0	0	0	1
LeftForeArm	0	0	0	0	0	0	1
LeftHand	0	0	0	0	0	0	1
LeftHandThumb1	0	0	0	0	0	0	1
LeftHandThumb2	0	0	0	0	0	0	1
LeftHandThumb3	0	0	0	0	0	0	1
LeftHandThumb4	0	0	0	0	0	0	1
LeftHandIndex1	0	0	0	0	0	0	1
LeftHandIndex2	0	0	0	0	0	0	1
LeftHandIndex3	0	0	0	0	0	0	1
LeftHandIndex4	0	0	0	0	0	0	1
LeftHandMiddle1	0	0	0	0	0	0	1
LeftHandMiddle2	0	0	0	0	0	0	1
LeftHandMiddle3	0	0	0	0	0	0	1
LeftHandMiddle4	0	0	0	0	0	0	1
LeftHandRing1	0	0	0	0	0	0	1
LeftHandRing2	0	0	0	0	0	0	1
LeftHandRing3	0	0	0	0	0	0	1
LeftHandRing4	0	0	0	0	0	0	1
LeftHandPinky1	0	0	0	0	0	0	1
LeftHandPinky2	0	0	0	0	0	0	1
LeftHandPinky3	0	0	0	0	0	0	1
LeftHandPinky4	0	0	0	0	0	0	1
RightShoulder	0	0	0	0	0	0	1
RightArm	0	0	0	0	0	0	1
RightForeArm	0	0	0	0	0	0	1
RightHand	0	0	0	0	0	0	1
RightHandPinky1	0	0	0	0	0	0	1
RightHandPinky2	0	0	0	0	0	0	1
RightHandPinky3	0	0	0	0	0	0	1
RightHandPinky4	0	0	0	0	0	0	1
RightHandRing1	0	0	0	0	0	0	1
RightHandRing2	0	0	0	0	0	0	1
RightHandRing3	0	0	0	0	0	0	1
RightHandRing4	0	0	0	0	0	0	1
RightHandMiddle1	0	0	0	0	0	0	1
RightHandMiddle2	0	0	0	0	0	0	1
RightHandMiddle3	0	0	0	0	0	0	1
RightHandMiddle4	0	0	0	0	0	0	1
RightHandIndex1	0	0	0	0	0	0	1
RightHandIndex2	0	0	0	0	0	0	1
RightHandIndex3	0	0	0	0	0	0	1
RightHandIndex4	0	0	0	0	0	0	1
RightHandThumb1	0	0	0	0	0	0	1
RightHandThumb2	0	0	0	0	0	0	1
RightHandThumb3	0	0	0	0	0	0	1
RightHandThumb4	0	0	0	0	0	0	1
LeftUpLeg	0	0	0	0	0	0	1
LeftLeg	0	0	0	0	0	0	1
LeftFoot	0	0	0	0	0	0	1
LeftToeBase	0	0	0	0	0	0	1
RightUpLeg	0	0	0	0	0	0	1
RightLeg	0	0	0	0	0	0	1
RightFoot	0	0	0	0	0	0	1
RightToeBase	0	0	0	0	0	0	1
[Hips]
3	41.21693039	1012.011047	5.40571928	-0.4384370148	-4.913622379	-5.338254452	1.0
4	63.29534531	1010.084229	6.635963917	-0.1370803416	-8.112409592	-5.364751816	1.0
5	83.96728516	1008.582642	11.71376133	0.1680871993	-11.30977726	-5.413044453	1.0
[Spine]
3	0	101.8159943	1.315000057	1.004004121	-2.35562706	2.872410774	1.0
4	0	101.8159943	1.315000057	0.9654067755	-2.933220387	2.893507242	1.0
5	0	101.8159943	1.315000057	0.9892866611	-3.575056076	2.9748528	1.0
[Spine1]
3	0	100.8349991	-10.00800037	0.5903733969	-1.002908826	6.217054844	1.0
4	0	100.8349991	-10.00800037	0.5244400501	-1.771110296	6.32837534	1.0
5	0	100.8349991	-10.00800037	0.478445828	-2.679890394	6.397388935	1.0
[Spine2]
3	0	91	-13.73399925	0.7169345617	-0.4908028841	6.147525311	1.0
4	0	91	-13.73399925	0.6950583458	-1.263641357	6.269241333	1.0
5	0	91	-13.73399925	0.6891300082	-2.178426266	6.349105358	1.0
[Neck]
3	0	166.7169952	-25.16200066	0.3407813013	1.510494113	-1.798223615	1.0
4	0	166.7169952	-25.16200066	0.088419348	1.733672857	-1.463096619	1.0
5	0	166.7169952	-25.16200066	-0.09570682049	1.531665683	-1.026316643	1.0
[Head]
3	0	96.17900085	16.84999847	0.28045398	4.704351902	-8.749614716	1.0
4	0	96.17900085	16.84999847	-0.3957192302	5.527683258	-8.836181641	1.0
5	0	96.17900085	16.84999847	-1.124491692	5.702388763	-8.785756111	1.0
[LeftEye]
3	30.6760006	64.09500122	92.83599854	0	0	0	1.0
4	30.6760006	64.09500122	92.83599854	0	0	0	1.0
5	30.6760006	64.09500122	92.83599854	0	0	0	1.0
[RightEye]
3	-30.6760006	64.09500122	92.83499908	0	0	0	1.0
4	-30.6760006	64.09500122	92.83499908	0	0	0	1.0
5	-30.6760006	64.09500122	92.83499908	0	0	0	1.0
[LeftShoulder]
3	45.70400238	109.4599991	-26.28000069	4.869390488	-13.86729145	-5.56025362	1.0
4	45.70400238	109.4599991	-26.28000069	4.855723858	-14.11361122	-5.356859207	1.0
5	45.70400238	109.4599991	-26.28000069	4.84032011	-14.35169697	-5.146175385	1.0
[LeftArm]
3	105.923996	-5.24600029	-22.32099915	-3.309520006	5.398133278	-84.48874664	1.0
4	105.923996	-5.24600029	-22.32099915	-3.589290619	6.265165329	-84.87364197	1.0
5	105.923996	-5.24600029	-22.32099915	-3.994879484	7.333314419	-85.25588989	1.0
[LeftForeArm]
3	278.414978	-0.0009999999311	0	7.160548193e-06	-14.01768875	-0.0002201286261	1.0
4	278.414978	-0.0009999999311	0	3.310058219e-07	-13.50598717	-0.0002158147981	1.0
5	278.414978	-0.0009999999311	0	-6.758273685e-06	-12.81007957	-0.0002080379345	1.0
[LeftHand]
3	283.2879944	0	0	-27.60225105	-0.1876303852	-10.25227642	1.0
4	283.2879944	0	0	-27.39392281	0.6259435415	-10.46644306	1.0
5	283.2879944	0	0	-27.10394669	1.632766247	-10.63986969	1.0
[LeftHandThumb1]
3	24.6609993	-15.75	26.8239994	18.2422924	-3.748757124	10.1924181	1.0
4	24.6609993	-15.75	26.8239994	18.40301132	-3.694155693	10.09073448	1.0
5	24.6609993	-15.75	26.8239994	18.56701088	-3.612331152	10.00587845	1.0
[LeftHandThumb2]
3	32.29800034	-18.64699936	18.64699936	-0.405174464	32.65611267	-2.769750118	1.0
4	32.29800034	-18.64699936	18.64699936	-0.3920316398	32.55680466	-2.692058325	1.0
5	32.29800034	-18.64699936	18.64699936	-0.3628089428	32.44417572	-2.607548952	1.0
[LeftHandThumb3]
3	26.52600098	-15.31499958	15.31499958	2.098593473	9.351151466	-0.02782730386	1.0
4	26.52600098	-15.31499958	15.31499958	2.106309652	9.375282288	-0.03419187665	1.0
5	26.52600098	-15.31499958	15.31499958	2.114061117	9.399529457	-0.04057651386	1.0
[LeftHandThumb4]
3	19.54599953	-11.28499985	11.28499985	0	0	0	1.0
4	19.54599953	-11.28499985	11.28499985	0	0	0	1.0
5	19.54599953	-11.28499985	11.28499985	0	0	0	1.0
[LeftHandIndex1]
3	91.09299469	-5.170999527	22.60099792	-0.2761777639	4.688850403	-7.675766945	1.0
4	91.09299469	-5.170999527	22.60099792	-0.2532920539	4.722217083	-7.547729492	1.0
5	91.09299469	-5.170999527	22.60099792	-0.2276371866	4.758722305	-7.402580261	1.0
[LeftHandIndex2]
3	36.76399994	0	0	-0.6276366711	2.769335747	-20.5606041	1.0
4	36.76399994	0	0	-0.6268982291	2.767969131	-20.54534531	1.0
5	36.76399994	0	0	-0.6260751486	2.766446829	-20.52833366	1.0
[LeftHandIndex3]
3	28.83100128	0	0	-0.1095237061	0.8043147326	-10.15819359	1.0
4	28.83100128	0	0	-0.1092523038	0.8028045893	-10.14294434	1.0
5	28.83100128	0	0	-0.1089504883	0.8011229634	-10.12595272	1.0
[LeftHandIndex4]
3	23.92700005	0	0	0	0	0	1.0
4	23.92700005	0	0	0	0	0	1.0
5	23.92700005	0	0	0	0	0	1.0
[LeftHandMiddle1]
3	95.33399963	0	0	-1.498993516	8.675098419	-15.69114685	1.0
4	95.33399963	0	0	-1.480448127	8.675256729	-15.53573036	1.0
5	95.33399963	0	0	-1.460225582	8.672030449	-15.36632252	1.0
[LeftHandMiddle2]
3	36.98199844	0	0	-1.426664591	3.823151827	-33.41445541	1.0
4	36.98199844	0	0	-1.426061153	3.822500229	-33.40567398	1.0
5	36.98199844	0	0	-1.425331831	3.821712255	-33.39506912	1.0
[LeftHandMiddle3]
3	29.50900078	0	0	-0.1489534527	1.48535347	-12.26178455	1.0
4	29.50900078	0	0	-0.1487573832	1.484533787	-12.25333977	1.0
5	29.50900078	0	0	-0.1485193074	1.483533382	-12.24302197	1.0
[LeftHandMiddle4]
3	28.3390007	0	0	0	0	0	1.0
4	28.3390007	0	0	0	0	0	1.0
5	28.3390007	0	0	0	0	0	1.0
[LeftHandRing1]
3	91.04499817	-0.4390000105	-18.65100098	-3.008692741	11.57726288	-26.83597755	1.0
4	91.04499817	-0.4390000105	-18.65100098	-2.995873451	11.59730721	-26.72987366	1.0
5	91.04499817	-0.4390000105	-18.65100098	-2.980859041	11.61581326	-26.60735893	1.0
[LeftHandRing2]
3	31.54000092	0	0	-1.198374271	4.056651115	-40.21614456	1.0
4	31.54000092	0	0	-1.198158264	4.056375504	-40.21260071	1.0
5	31.54000092	0	0	-1.197901845	4.056048393	-40.20839691	1.0
[LeftHandRing3]
3	29.37700081	0	0	-0.09260033816	1.904880285	-19.35337639	1.0
4	29.37700081	0	0	-0.09253838658	1.90461731	-19.35066414	1.0
5	29.37700081	0	0	-0.09246024489	1.904289246	-19.34727478	1.0
[LeftHandRing4]
3	26.47500038	0	0	0	0	0	1.0
4	26.47500038	0	0	0	0	0	1.0
5	26.47500038	0	0	0	0	0	1.0
[LeftHandPinky1]
3	80.77799988	-4.887000084	-38.06099701	-5.208981514	16.20399284	-36.76541519	1.0
4	80.77799988	-4.887000084	-38.06099701	-5.199905396	16.26007462	-36.66848373	1.0
5	80.77799988	-4.887000084	-38.06099701	-5.18834734	16.31665421	-36.55319214	1.0
[LeftHandPinky2]
3	36	0	0	-1.94560349	3.817506552	-45.66316223	1.0
4	36	0	0	-1.94631362	3.818128347	-45.67263031	1.0
5	36	0	0	-1.946853876	3.818603039	-45.67987823	1.0
[LeftHandPinky3]
3	21.14200211	0	0	-0.5433549285	2.833764553	-20.52734566	1.0
4	21.14200211	0	0	-0.5437626839	2.83461833	-20.53678322	1.0
5	21.14200211	0	0	-0.5440728664	2.835270405	-20.5439949	1.0
[LeftHandPinky4]
3	19.75699997	0	0	0	0	0	1.0
4	19.75699997	0	0	0	0	0	1.0
5	19.75699997	0	0	0	0	0	1.0
[RightShoulder]
3	-45.70000076	109.4620056	-26.28000069	4.998352528	2.438895464	6.471807003	1.0
4	-45.70000076	109.4620056	-26.28000069	5.078588486	2.368394852	6.818586826	1.0
5	-45.70000076	109.4620056	-26.28000069	5.152408123	2.370416641	7.153455257	1.0
[RightArm]
3	-105.9280014	-5.248000145	-22.32099915	-1.283001542	0.5524529815	66.57415009	1.0
4	-105.9280014	-5.248000145	-22.32099915	-2.677247524	-0.04944546521	66.06732178	1.0
5	-105.9280014	-5.248000145	-22.32099915	-4.437611103	-0.6477618814	65.52429199	1.0
[RightForeArm]
3	-278.414978	0	0	-9.290066032e-07	17.36458588	-4.347980394e-06	1.0
4	-278.414978	0	0	1.906519856e-06	18.42291641	7.10788936e-06	1.0
5	-278.414978	0	0	3.687959861e-06	20.04751396	1.683890332e-05	1.0
[RightHand]
3	-283.2879944	0	0.0009999999311	-11.48390198	-4.257927418	12.23619366	1.0
4	-283.2879944	0	0.0009999999311	-10.95253372	-2.255857229	11.28121376	1.0
5	-283.2879944	0	0.0009999999311	-10.77671623	0.0154377548	9.581780434	1.0
[RightHandPinky1]
3	-80.76699829	-4.885000229	-38.06000137	-5.366175175	-16.26206779	37.84780502	1.0
4	-80.76699829	-4.885000229	-38.06000137	-5.386299133	-16.20914459	38.07641602	1.0
5	-80.76699829	-4.885000229	-38.06000137	-5.377097607	-16.11734581	38.13059616	1.0
[RightHandPinky2]
3	-36	0	0.0009999999311	-1.930522203	-3.803804874	45.48038864	1.0
4	-36	0	0.0009999999311	-1.927580237	-3.801218748	45.4411087	1.0
5	-36	0	0.0009999999311	-1.927232623	-3.800910711	45.43645477	1.0
[RightHandPinky3]
3	-21.14200211	0	0	-0.757173121	0.0710408017	21.94218063	1.0
4	-21.14200211	0	0	-0.7554013729	0.07454132289	21.90307236	1.0
5	-21.14200211	0	0	-0.7551935315	0.07495763898	21.89842224	1.0
[RightHandPinky4]
3	-19.75699997	0	0	0	0	0	1.0
4	-19.75699997	0	0	0	0	0	1.0
5	-19.75699997	0	0	0	0	0	1.0
[RightHandRing1]
3	-91.03599548	-0.4390000105	-18.65100098	-3.150372028	-11.55050278	27.93216705	1.0
4	-91.03599548	-0.4390000105	-18.65100098	-3.168125391	-11.51011944	28.08293724	1.0
5	-91.03599548	-0.4390000105	-18.65100098	-3.158757925	-11.45818424	28.03037834	1.0
[RightHandRing2]
3	-31.54000092	0	0	-1.194520712	-4.051453114	40.15607071	1.0
4	-31.54000092	0	0	-1.195690989	-4.052945614	40.17528534	1.0
5	-31.54000092	0	0	-1.197927117	-4.055799484	40.2119751	1.0
[RightHandRing3]
3	-29.37700081	0	0	-0.1373260021	0.09463295341	17.76825905	1.0
4	-29.37700081	0	0	-0.1377085447	0.09285218269	17.78650665	1.0
5	-29.37700081	0	0	-0.138459146	0.08936891705	17.822258	1.0
[RightHandRing4]
3	-26.47500038	0	0	0	0	0	1.0
4	-26.47500038	0	0	0	0	0	1.0
5	-26.47500038	0	0	0	0	0	1.0
[RightHandMiddle1]
3	-95.32500458	0	0	-1.660117269	-8.854122162	17.01626587	1.0
4	-95.32500458	0	0	-1.67793107	-8.785544395	17.16939163	1.0
5	-95.32500458	0	0	-1.665506601	-8.651970863	17.07695389	1.0
[RightHandMiddle2]
3	-36.98199844	0	0	-1.428597331	-3.82495141	33.44464111	1.0
4	-36.98199844	0	0	-1.431575179	-3.8281703	33.48799133	1.0
5	-36.98199844	0	0	-1.43509376	-3.831967831	33.53919601	1.0
[RightHandMiddle3]
3	-29.50900078	0	0	-0.2542729676	-1.680907011	15.92734814	1.0
4	-29.50900078	0	0	-0.2555006444	-1.684905887	15.9693985	1.0
5	-29.50900078	0	0	-0.2569400668	-1.689584374	16.01859856	1.0
[RightHandMiddle4]
3	-28.3390007	0	0.0009999999311	0	0	0	1.0
4	-28.3390007	0	0.0009999999311	0	0	0	1.0
5	-28.3390007	0	0.0009999999311	0	0	0	1.0
[RightHandIndex1]
3	-91.08300018	-5.167999744	22.60099792	-0.4473560452	-4.877338886	9.506132126	1.0
4	-91.08300018	-5.167999744	22.60099792	-0.4877809286	-4.896494865	9.846630096	1.0
5	-91.08300018	-5.167999744	22.60099792	-0.5008050203	-4.870912075	9.859624863	1.0
[RightHandIndex2]
3	-36.76399994	0	0	-0.6233296394	-2.76116538	20.47242737	1.0
4	-36.76399994	0	0	-0.6217562556	-2.758241892	20.4397583	1.0
5	-36.76399994	0	0	-0.6209629178	-2.756764412	20.42325401	1.0
[RightHandIndex3]
3	-28.83100128	0	0	-0.2361013889	-0.1476542652	13.74421501	1.0
4	-28.83100128	0	0	-0.2353217304	-0.1444693208	13.71160316	1.0
5	-28.83100128	0	0	-0.2349282354	-0.1428600252	13.69511604	1.0
[RightHandIndex4]
3	-23.92700005	0	0	0	0	0	1.0
4	-23.92700005	0	0	0	0	0	1.0
5	-23.92700005	0	0	0	0	0	1.0
[RightHandThumb1]
3	-24.64799881	-15.72700024	26.82600021	17.4016571	5.327736855	-10.34546661	1.0
4	-24.64799881	-15.72700024	26.82600021	16.85885429	6.092822075	-10.5495739	1.0
5	-24.64799881	-15.72700024	26.82600021	16.36449242	6.738931656	-10.76306534	1.0
[RightHandThumb2]
3	-32.29800034	-18.64699936	18.64699936	-0.4954941273	-33.53514099	2.835267305	1.0
4	-32.29800034	-18.64699936	18.64699936	-0.4997091889	-33.81208801	2.780085087	1.0
5	-32.29800034	-18.64699936	18.64699936	-0.4907884002	-33.94675446	2.69207859	1.0
[RightHandThumb3]
3	-26.52600098	-15.31399918	15.31399918	1.869527936	-8.678845406	0.7906169295	1.0
4	-26.52600098	-15.31399918	15.31399918	1.865345955	-8.734708786	0.4383078218	1.0
5	-26.52600098	-15.31399918	15.31399918	1.858646512	-8.74669075	-0.009286037646	1.0
[RightHandThumb4]
3	-19.54599953	-11.28499985	11.28499985	0	0	0	1.0
4	-19.54599953	-11.28499985	11.28499985	0	0	0	1.0
5	-19.54599953	-11.28499985	11.28499985	0	0	0	1.0
[LeftUpLeg]
3	82.07800293	-67.51699829	-15.99599934	-17.98204041	16.93715668	10.66202068	1.0
4	82.07800293	-67.51699829	-15.99599934	-18.4039402	18.52486038	9.60989666	1.0
5	82.07800293	-67.51699829	-15.99599934	-18.50252533	20.22784805	8.483210564	1.0
[LeftLeg]
3	0	-443.7049866	2.845999956	27.42720222	8.629183769	5.295403481	1.0
4	0	-443.7049866	2.845999956	29.39724922	8.620487213	5.240324497	1.0
5	0	-443.7049866	2.845999956	30.9262085	8.431326866	5.347670078	1.0
[LeftFoot]
3	0	-444.2789917	-29.8219986	-5.622785568	6.847633839	-7.384026051	1.0
4	0	-444.2789917	-29.8219986	-7.623885632	8.449314117	-6.731184959	1.0
5	0	-444.2789917	-29.8219986	-9.582928658	10.06757832	-6.401379585	1.0
[LeftToeBase]
3	0	-87.28699493	107.1060028	-0.006264370866	9.115809007e-06	-2.468922503e-06	1.0
4	0	-87.28699493	107.1060028	0.008079146035	7.099306004e-06	-2.418284112e-06	1.0
5	0	-87.28699493	107.1060028	-0.05827568099	2.963533916e-06	-2.365050932e-06	1.0
[RightUpLeg]
3	-82.07800293	-67.51699829	-15.99599934	-6.764765263	-3.493391037	7.426086426	1.0
4	-82.07800293	-67.51699829	-15.99599934	-8.036746979	-2.676080465	5.456968307	1.0
5	-82.07800293	-67.51699829	-15.99599934	-8.782370567	-1.813136578	3.536665916	1.0
[RightLeg]
3	0	-443.7049866	2.861999989	19.39909363	-4.7010746	2.937374115	1.0
4	0	-443.7049866	2.861999989	21.51411247	-3.843385696	3.877502918	1.0
5	0	-443.7049866	2.861999989	22.79536819	-2.634414434	5.138379097	1.0
[RightFoot]
3	0	-444.2770081	-29.83799934	-12.24205208	3.108055592	-6.475516319	1.0
4	0	-444.2770081	-29.83799934	-12.88846302	5.000771523	-5.849732876	1.0
5	0	-444.2770081	-29.83799934	-13.25686359	5.952025414	-5.265994072	1.0
[RightToeBase]
3	0	-87.28699493	107.1060028	-0.7884588838	-1.103014483e-06	2.145000735e-06	1.0
4	0	-87.28699493	107.1060028	-0.4624251425	-3.032505902e-06	4.075463949e-07	1.0
5	0	-87.28699493	107.1060028	-0.2738915086	-4.783037184e-06	-1.277768661e-06	1.0
[EndOfFile]
